<svg width="66" height="66" viewBox="0 0 66 66" fill="none" xmlns="http://www.w3.org/2000/svg">
<rect x="2" y="2" width="62" height="62" rx="20" fill="url(#paint0_linear_304_819)"/>
<path d="M33 25.6667C42.1127 25.6667 49.5 23.2043 49.5 20.1667C49.5 17.1291 42.1127 14.6667 33 14.6667C23.8873 14.6667 16.5 17.1291 16.5 20.1667C16.5 23.2043 23.8873 25.6667 33 25.6667Z" stroke="white" stroke-width="2.5" stroke-linecap="round" stroke-linejoin="round"/>
<path d="M16.5 20.1667V45.8334C16.5 47.292 18.2384 48.691 21.3327 49.7224C24.4271 50.7539 28.6239 51.3334 33 51.3334C37.3761 51.3334 41.5729 50.7539 44.6673 49.7224C47.7616 48.691 49.5 47.292 49.5 45.8334V20.1667" stroke="white" stroke-width="2.5" stroke-linecap="round" stroke-linejoin="round"/>
<path d="M16.5 33C16.5 34.4587 18.2384 35.8576 21.3327 36.8891C24.4271 37.9205 28.6239 38.5 33 38.5C37.3761 38.5 41.5729 37.9205 44.6673 36.8891C47.7616 35.8576 49.5 34.4587 49.5 33" stroke="white" stroke-width="2.5" stroke-linecap="round" stroke-linejoin="round"/>
<defs>
<linearGradient id="paint0_linear_304_819" x1="11" y1="18" x2="52.5" y2="48" gradientUnits="userSpaceOnUse">
<stop stop-color="#00B8DB"/>
<stop offset="1" stop-color="#9810FA"/>
</linearGradient>
</defs>
</svg>
